<?xml version="1.0" standalone="no"?><!DOCTYPE svg PUBLIC "-//W3C//DTD SVG 1.1//EN" "http://www.w3.org/Graphics/SVG/1.1/DTD/svg11.dtd"><svg class="icon" style="" viewBox="0 0 1024 1024" version="1.1" xmlns="http://www.w3.org/2000/svg" p-id="1545" xmlns:xlink="http://www.w3.org/1999/xlink" width="200" height="200"><defs><style type="text/css"><![CDATA[

]]></style></defs><path d="M648.492674 674.40688 475.759611 540.670993c-3.130294-2.424212-3.130294-17.817808 0-20.24202l172.733063-133.722584c3.860934-2.973728 9.090029-3.536546 13.469779-1.362021 4.379751 2.148943 7.160073 6.597255 7.160073 11.483542l0 267.458471c0 4.885264-2.780323 9.333576-7.160073 11.482519-1.786693 0.887206-3.717671 1.311879-5.635347 1.311879C653.546783 677.080779 650.779763 676.16799 648.492674 674.40688zM504.493026 530.549471l139.039683 107.645672L643.532709 422.917102 504.493026 530.549471z" p-id="1546" fill="#40ce8f"></path><path d="M476.405317 674.40688l-172.733063-133.735887c-3.130294-2.424212-4.960988-6.160303-4.960988-10.121522 0-3.961218 1.830695-7.697309 4.960988-10.121522l172.733063-133.722584c3.860934-2.973728 9.090029-3.536546 13.469779-1.362021 4.379751 2.148943 7.160073 6.597255 7.160073 11.483542l0 267.458471c0 4.885264-2.780323 9.333576-7.160073 11.482519-1.786693 0.887206-3.717671 1.311879-5.635347 1.311879C481.459427 677.080779 478.692407 676.16799 476.405317 674.40688zM332.405669 530.549471l139.039683 107.645672L471.445352 422.917102 332.405669 530.549471z" p-id="1547" fill="#40ce8f"></path><path d="M512 947.106726c-239.915162 0-435.106726-195.191564-435.106726-435.106726S272.084838 76.893274 512 76.893274s435.106726 195.191564 435.106726 435.106726S751.915162 947.106726 512 947.106726zM512 111.019513c-221.1027 0-400.980487 179.877787-400.980487 400.980487s179.877787 400.980487 400.980487 400.980487 400.980487-179.877787 400.980487-400.980487S733.1027 111.019513 512 111.019513z" p-id="1548" fill="#40ce8f"></path></svg>