<?xml version="1.0" standalone="no"?><!DOCTYPE svg PUBLIC "-//W3C//DTD SVG 1.1//EN" "http://www.w3.org/Graphics/SVG/1.1/DTD/svg11.dtd"><svg class="icon" style="" viewBox="0 0 1024 1024" version="1.1" xmlns="http://www.w3.org/2000/svg" p-id="1392" xmlns:xlink="http://www.w3.org/1999/xlink" width="200" height="200"><defs><style type="text/css"><![CDATA[

]]></style></defs><path d="M367.672894 673.000857c-1.917676 0-3.848655-0.424672-5.635347-1.311879-4.379751-2.148943-7.160073-6.597255-7.160073-11.482519L354.877473 392.747989c0-4.885264 2.780323-9.333576 7.160073-11.482519 4.379751-2.174526 9.608845-1.611707 13.469779 1.362021l172.733063 133.722584c3.130294 2.424212 3.130294 17.817808 0 20.24202l-172.733063 133.735887C373.220237 672.089092 370.452193 673.000857 367.672894 673.000857zM380.467291 418.83718l0 215.279065 139.039683-107.645672L380.467291 418.83718z" p-id="1393" fill="#40ce8f"></path><path d="M539.759227 673.000857c-1.917676 0-3.848655-0.424672-5.635347-1.311879-4.379751-2.148943-7.160073-6.597255-7.160073-11.482519L526.963807 392.747989c0-4.885264 2.780323-9.333576 7.160073-11.482519 4.379751-2.174526 9.608845-1.611707 13.469779 1.362021l172.733063 133.722584c3.130294 2.424212 4.960988 6.160303 4.960988 10.121522 0 3.961218-1.830695 7.697309-4.960988 10.121522l-172.733063 133.735887C545.307593 672.089092 542.53955 673.000857 539.759227 673.000857zM552.554648 418.83718l0 215.279065 139.039683-107.645672L552.554648 418.83718z" p-id="1394" fill="#40ce8f"></path><path d="M76.893274 512c0-239.915162 195.191564-435.106726 435.106726-435.106726s435.106726 195.191564 435.106726 435.106726S751.915162 947.106726 512 947.106726 76.893274 751.915162 76.893274 512zM111.019513 512c0 221.1027 179.877787 400.980487 400.980487 400.980487s400.980487-179.877787 400.980487-400.980487S733.1027 111.019513 512 111.019513 111.019513 290.8973 111.019513 512z" p-id="1395" fill="#40ce8f"></path></svg>