<?xml version="1.0" standalone="no"?><!DOCTYPE svg PUBLIC "-//W3C//DTD SVG 1.1//EN" "http://www.w3.org/Graphics/SVG/1.1/DTD/svg11.dtd"><svg class="icon" style="" viewBox="0 0 1024 1024" version="1.1" xmlns="http://www.w3.org/2000/svg" p-id="16469" xmlns:xlink="http://www.w3.org/1999/xlink" width="12" height="12"><defs><style type="text/css"><![CDATA[

]]></style></defs><path d="M575.532989 770.533322 575.532989 253.466294c0-33.745313-28.553825-61.100974-63.89639-61.100974-35.342694 0-63.89639 27.355661-63.89639 61.100974l0 517.067029c0 33.745313 28.553697 61.100974 63.89639 61.100974C546.979164 831.634296 575.532989 804.278635 575.532989 770.533322zM831.118678 770.533322 831.118678 253.466294c0-33.745313-28.553697-61.100974-63.89639-61.100974-35.342694 0-63.89639 27.355661-63.89639 61.100974l0 517.067029c0 33.745313 28.553697 61.100974 63.89639 61.100974C802.564981 831.634296 831.118678 804.278635 831.118678 770.533322zM319.9473 770.533322 319.9473 253.466294c0-33.745313-28.553697-61.100974-63.89639-61.100974s-63.89639 27.355661-63.89639 61.100974l0 517.067029c0 33.745313 28.553697 61.100974 63.89639 61.100974S319.9473 804.278635 319.9473 770.533322z" p-id="16470" fill="#555"></path></svg>