<?xml version="1.0" standalone="no"?><!DOCTYPE svg PUBLIC "-//W3C//DTD SVG 1.1//EN" "http://www.w3.org/Graphics/SVG/1.1/DTD/svg11.dtd"><svg class="icon" style="" viewBox="0 0 1024 1024" version="1.1" xmlns="http://www.w3.org/2000/svg" p-id="3858" xmlns:xlink="http://www.w3.org/1999/xlink" width="16" height="16"><defs><style type="text/css"><![CDATA[

]]></style></defs><path d="M512 736c0-10.944 2.048-21.376 3.2-32H384V576l-256 256h256 145.6C518.912 801.792 512 769.856 512 736z" p-id="3859" fill="#555"></path><path d="M1019.968 552.128C1021.632 538.816 1024 525.76 1024 512c0-88.384-35.84-168.384-93.76-226.304l-90.496 90.56c23.68 23.68 40.576 53.824 49.344 87.232C940.864 480.448 985.728 511.232 1019.968 552.128z" p-id="3860" fill="#555"></path><path d="M800 512C676.224 512 576 612.224 576 736s100.224 224 224 224 224-100.224 224-224S923.776 512 800 512zM832 896h-64v-256h-64V576h64 64V896z" p-id="3861" fill="#555"></path><path d="M128 512c0-106.048 85.952-192 192-192h320v128l256-256h-256H320C143.296 192 0 335.296 0 512c0 88.384 35.84 168.384 93.696 226.24l90.56-90.496C149.504 612.992 128 565.056 128 512z" p-id="3862" fill="#555"></path></svg>