<?xml version="1.0" standalone="no"?><!DOCTYPE svg PUBLIC "-//W3C//DTD SVG 1.1//EN" "http://www.w3.org/Graphics/SVG/1.1/DTD/svg11.dtd"><svg class="icon" style="" viewBox="0 0 1024 1024" version="1.1" xmlns="http://www.w3.org/2000/svg" p-id="3508" xmlns:xlink="http://www.w3.org/1999/xlink" width="16" height="16"><defs><style type="text/css"><![CDATA[

]]></style></defs><path d="M127.97672 511.865947c0-106.011452 85.921905-191.933357 191.933357-191.933357l319.888588 0 0 127.95523 255.911484-255.911484L639.799688 191.976336 319.910077 191.976336c-176.643116 0-319.888588 143.246495-319.888588 319.888588 0 88.35328 35.827997 168.325683 93.663216 226.161926l90.528829-90.464361C149.473313 612.82329 127.97672 564.903907 127.97672 511.865947zM929.938718 285.640576l-90.464361 90.528829c34.740222 34.675754 56.236815 82.659605 56.236815 135.696542 0 106.011452-85.921905 191.933357-191.933357 191.933357L383.888204 703.799304 383.888204 575.844074 127.97672 831.754534l255.911484 0 319.888588 0c176.706561 0 319.888588-143.182027 319.888588-319.888588C1023.666402 423.512666 987.838406 343.540264 929.938718 285.640576z" p-id="3509" fill="#555"></path></svg>