<?xml version="1.0" standalone="no"?><!DOCTYPE svg PUBLIC "-//W3C//DTD SVG 1.1//EN" "http://www.w3.org/Graphics/SVG/1.1/DTD/svg11.dtd"><svg class="icon" style="" viewBox="0 0 1024 1024" version="1.1" xmlns="http://www.w3.org/2000/svg" p-id="8089" xmlns:xlink="http://www.w3.org/1999/xlink" width="22" height="22"><defs><style type="text/css"><![CDATA[

]]></style></defs><path d="M858.912 512c0 20.8-27.808 37.728-27.808 37.728l-313.28 182.56C515.36 734.752 511.04 736 504.864 736c-9.888 0-14.816-4.928-14.816-14.816l0-144.384-270.272 155.52C217.312 734.752 213.6 736 208.672 736 197.568 736 192 731.072 192 721.184L192 302.816C192 292.928 197.568 288 208.672 288c4.928 0 8.64 1.248 11.104 3.712l270.272 155.52L490.048 302.816C490.048 292.928 494.976 288 504.864 288c6.176 0 10.496 1.248 12.96 3.712l310.72 182.496C828.512 474.208 858.912 491.2 858.912 512z" p-id="8090" fill="#fff"></path></svg>