<?xml version="1.0" standalone="no"?><!DOCTYPE svg PUBLIC "-//W3C//DTD SVG 1.1//EN" "http://www.w3.org/Graphics/SVG/1.1/DTD/svg11.dtd"><svg class="icon" style="" viewBox="0 0 1024 1024" version="1.1" xmlns="http://www.w3.org/2000/svg" p-id="1881" xmlns:xlink="http://www.w3.org/1999/xlink" width="200" height="200"><defs><style type="text/css"><![CDATA[

]]></style></defs><path d="M512.09088 1024C229.72672 1024 0.0064 794.3232 0.0064 512.0128 0.0064 229.68704 229.72672 0 512.09088 0 794.3552 0 1023.9936 229.68704 1023.9936 512.0128 1023.9936 794.3232 794.3552 1024 512.09088 1024zM512.09088 38.4C250.90048 38.4 38.4064 250.86208 38.4064 512.0128 38.4064 773.14944 250.90048 985.6 512.09088 985.6c261.09056 0 473.50272-212.45056 473.50272-473.5872C985.5936 250.86208 773.18144 38.4 512.09088 38.4z" p-id="2216" fill="#40ce8f"></path><path d="M511.99488 839.69024c5.32992 0 10.569728-2.079744 14.485504-5.998592l307.2-307.2c7.999488-7.991296 7.999488-20.970496 0-28.959744l-307.2-307.2c-5.846016-5.869568-14.664704-7.629824-22.316032-4.440064C496.509952 189.060096 491.52 196.519936 491.52 204.81024l0 153.6c0 11.31008 9.16992 20.48 20.48 20.48s20.48-9.16992 20.48-20.48L532.48 254.260224 790.234112 512.01024 532.48 769.760256 532.48 665.61024c0-11.31008-9.16992-20.48-20.48-20.48-11.309056 0-20.48 9.16992-20.48 20.48l0 153.6c0 8.291328 4.989952 15.750144 12.644352 18.921472C506.693632 839.180288 509.360128 839.69024 511.99488 839.69024z" p-id="1882" fill="#40ce8f"></path><path d="M196.964352 838.129664C189.309952 834.960384 184.32 827.49952 184.32 819.21024l0-614.4c0-8.290304 4.989952-15.750144 12.644352-18.920448 7.640064-3.18976 16.46592-1.429504 22.316032 4.440064l307.2 307.2c7.999488 7.990272 7.999488 20.970496 0 28.959744l-307.2 307.2c-3.915776 3.919872-9.155584 5.998592-14.485504 5.998592C202.160128 839.69024 199.493632 839.180288 196.964352 838.129664zM225.28 254.260224l0 515.500032L483.034112 512.01024 225.28 254.260224z" p-id="1883" fill="#40ce8f"></path></svg>