<?xml version="1.0" standalone="no"?><!DOCTYPE svg PUBLIC "-//W3C//DTD SVG 1.1//EN" "http://www.w3.org/Graphics/SVG/1.1/DTD/svg11.dtd"><svg class="icon" style="" viewBox="0 0 1024 1024" version="1.1" xmlns="http://www.w3.org/2000/svg" p-id="11461" xmlns:xlink="http://www.w3.org/1999/xlink" width="200" height="200"><defs><style type="text/css"><![CDATA[

]]></style></defs><path d="M512.09088 1024C229.72672 1024 0.0064 794.3232 0.0064 512.0128 0.0064 229.68704 229.72672 0 512.09088 0 794.3552 0 1023.9936 229.68704 1023.9936 512.0128 1023.9936 794.3232 794.3552 1024 512.09088 1024zM512.09088 38.4C250.90048 38.4 38.4064 250.86208 38.4064 512.0128 38.4064 773.14944 250.90048 985.6 512.09088 985.6c261.09056 0 473.50272-212.45056 473.50272-473.5872C985.5936 250.86208 773.18144 38.4 512.09088 38.4z" p-id="2216" fill="#40ce8f"></path><path d="M437.461353 752.306064 310.926472 752.306064c-19.282159 0-34.969443-15.687284-34.969443-34.969443L275.957029 307.3449c0-19.282159 15.687284-34.969443 34.969443-34.969443l126.534881 0c19.282159 0 34.969443 15.687284 34.969443 34.969443l0 409.991722C472.431819 736.61878 456.744535 752.306064 437.461353 752.306064zM325.591473 711.373817l97.205902 0c4.806469 0 8.702196-3.895727 8.702196-8.702196L431.499571 322.009901c0-4.806469-3.895727-8.702196-8.702196-8.702196l-97.205902 0c-4.806469 0-8.702196 3.895727-8.702196 8.702196l0 380.661719C316.889277 707.47809 320.785004 711.373817 325.591473 711.373817z" p-id="11463" fill="#40ce8f"></path><path d="M709.661825 752.306064 583.125921 752.306064c-19.282159 0-34.969443-15.687284-34.969443-34.969443L548.156478 307.3449c0-19.282159 15.687284-34.969443 34.969443-34.969443l126.535905 0c19.282159 0 34.969443 15.687284 34.969443 34.969443l0 409.991722C744.631268 736.61878 728.943984 752.306064 709.661825 752.306064zM597.790922 711.373817l97.205902 0c4.806469 0 8.702196-3.895727 8.702196-8.702196L703.69902 322.009901c0-4.806469-3.895727-8.702196-8.702196-8.702196l-97.205902 0c-4.806469 0-8.702196 3.895727-8.702196 8.702196l0 380.661719C589.088726 707.47809 592.984453 711.373817 597.790922 711.373817z" p-id="11464" fill="#40ce8f"></path></svg>