<?xml version="1.0" standalone="no"?><!DOCTYPE svg PUBLIC "-//W3C//DTD SVG 1.1//EN" "http://www.w3.org/Graphics/SVG/1.1/DTD/svg11.dtd"><svg class="icon" style="" viewBox="0 0 1024 1024" version="1.1" xmlns="http://www.w3.org/2000/svg" p-id="2215" xmlns:xlink="http://www.w3.org/1999/xlink" width="200" height="200"><defs><style type="text/css"><![CDATA[

]]></style></defs><path d="M512.09088 1024C229.72672 1024 0.0064 794.3232 0.0064 512.0128 0.0064 229.68704 229.72672 0 512.09088 0 794.3552 0 1023.9936 229.68704 1023.9936 512.0128 1023.9936 794.3232 794.3552 1024 512.09088 1024zM512.09088 38.4C250.90048 38.4 38.4064 250.86208 38.4064 512.0128 38.4064 773.14944 250.90048 985.6 512.09088 985.6c261.09056 0 473.50272-212.45056 473.50272-473.5872C985.5936 250.86208 773.18144 38.4 512.09088 38.4z" p-id="2216" fill="#40ce8f"></path><path d="M769.41184 496.93568 471.85152 261.79328c-5.77536-4.56192-13.64992-5.42464-20.27264-2.21568-6.624 3.20768-10.83136 9.92-10.83136 17.28l0 53.4144-0.05248-0.04096 0 48.94208 0.05248 0.04096 0 265.57184-0.05248 0.04096 0 48.94208 0.05248-0.04096 0 53.41312c0 7.36 4.20736 14.07232 10.83136 17.28 2.65984 1.28768 5.51936 1.92 8.36608 1.92 4.24192 0 8.45184-1.40544 11.90784-4.13568l297.55904-235.1424c4.60928-3.6416 7.296-9.19168 7.296-15.06432C776.70784 506.12736 774.01984 500.57728 769.41184 496.93568zM479.14752 409.56032 608.77952 512l-129.632 102.44096L479.14752 409.56032zM479.14752 707.49824l0-44.1152L651.65056 527.0656c4.61056-3.6416 7.29728-9.19168 7.29728-15.0656 0-5.87264-2.688-11.42272-7.29728-15.06432L479.14752 360.61824l0-44.11648L726.53952 512 479.14752 707.49824z" p-id="2217" fill="#40ce8f"></path><path d="M361.38752 707.49696 361.38752 316.50304l47.30752 37.38368 0-48.94208-54.6048-43.15008c-5.77408-4.5632-13.64864-5.42336-20.27136-2.21568-6.624 3.20896-10.83136 9.92-10.83136 17.28l0 470.2848c0 7.36 4.20736 14.07104 10.83136 17.28 2.65856 1.28768 5.51936 1.92 8.36608 1.92 4.24192 0 8.45056-1.40544 11.90528-4.13568l54.6048-43.15008 0-48.9408L361.38752 707.49696z" p-id="2218" fill="#40ce8f"></path></svg>