<?xml version="1.0" standalone="no"?><!DOCTYPE svg PUBLIC "-//W3C//DTD SVG 1.1//EN" "http://www.w3.org/Graphics/SVG/1.1/DTD/svg11.dtd"><svg class="icon" style="" viewBox="0 0 1024 1024" version="1.1" xmlns="http://www.w3.org/2000/svg" p-id="1092" xmlns:xlink="http://www.w3.org/1999/xlink" width="200" height="200"><defs><style type="text/css"><![CDATA[

]]></style></defs><path d="M512.09088 1024C229.72672 1024 0.0064 794.3232 0.0064 512.0128 0.0064 229.68704 229.72672 0 512.09088 0 794.3552 0 1023.9936 229.68704 1023.9936 512.0128 1023.9936 794.3232 794.3552 1024 512.09088 1024zM512.09088 38.4C250.90048 38.4 38.4064 250.86208 38.4064 512.0128 38.4064 773.14944 250.90048 985.6 512.09088 985.6c261.09056 0 473.50272-212.45056 473.50272-473.5872C985.5936 250.86208 773.18144 38.4 512.09088 38.4z" p-id="2216" fill="#40ce8f"></path><path d="M512.00512 839.69024c-5.32992 0-10.569728-2.079744-14.485504-5.998592l-307.2-307.2c-7.999488-7.991296-7.999488-20.970496 0-28.959744l307.2-307.2c5.844992-5.869568 14.66368-7.629824 22.315008-4.440064 7.655424 3.16928 12.645376 10.62912 12.645376 18.919424l0 153.6c0 11.31008-9.16992 20.48-20.48 20.48s-20.48-9.16992-20.48-20.48L491.52 254.260224 233.765888 512.01024 491.52 769.760256 491.52 665.61024c0-11.31008 9.16992-20.48 20.48-20.48 11.309056 0 20.48 9.16992 20.48 20.48l0 153.6c0 8.291328-4.989952 15.750144-12.644352 18.921472C517.306368 839.180288 514.639872 839.69024 512.00512 839.69024z" p-id="1093" fill="#40ce8f"></path><path d="M819.206144 839.69024c-5.32992 0-10.569728-2.079744-14.485504-5.998592l-307.2-307.2c-7.999488-7.991296-7.999488-20.970496 0-28.959744l307.2-307.2c5.850112-5.869568 14.675968-7.629824 22.316032-4.440064 7.653376 3.16928 12.643328 10.62912 12.643328 18.919424l0 614.4c0 8.291328-4.989952 15.750144-12.644352 18.921472C824.506368 839.180288 821.839872 839.69024 819.206144 839.69024zM540.965888 512.01024 798.72 769.760256 798.72 254.260224 540.965888 512.01024z" p-id="1094" fill="#40ce8f"></path></svg>