<?xml version="1.0" standalone="no"?><!DOCTYPE svg PUBLIC "-//W3C//DTD SVG 1.1//EN" "http://www.w3.org/Graphics/SVG/1.1/DTD/svg11.dtd"><svg class="icon" style="" viewBox="0 0 1024 1024" version="1.1" xmlns="http://www.w3.org/2000/svg" p-id="2480" xmlns:xlink="http://www.w3.org/1999/xlink" width="16" height="16"><defs><style type="text/css"><![CDATA[

]]></style></defs><path d="M156.16 384h89.6l296.96-217.6c28.16-23.04 48.64-20.48 48.64 35.84v619.52c0 56.32-23.04 58.88-48.64 35.84L245.76 640H156.16c-28.16 0-51.2-23.04-51.2-51.2v-153.6c0-28.16 23.04-51.2 51.2-51.2z" fill="#555" p-id="2481"></path><path d="M678.4 412.16l17.92-17.92c5.12-5.12 12.8-5.12 17.92 0l81.92 81.92 81.92-81.92c5.12-5.12 12.8-5.12 17.92 0l17.92 17.92c5.12 5.12 5.12 12.8 0 17.92L832 512l81.92 81.92c5.12 5.12 5.12 12.8 0 17.92l-17.92 17.92c-5.12 5.12-12.8 5.12-17.92 0l-81.92-81.92-81.92 81.92c-5.12 5.12-12.8 5.12-17.92 0l-17.92-17.92c-5.12-5.12-5.12-12.8 0-17.92l81.92-81.92-81.92-81.92c-5.12-5.12-5.12-12.8 0-17.92z" fill="#555" p-id="2482"></path></svg>