<?xml version="1.0" standalone="no"?><!DOCTYPE svg PUBLIC "-//W3C//DTD SVG 1.1//EN" "http://www.w3.org/Graphics/SVG/1.1/DTD/svg11.dtd"><svg class="icon" style="" viewBox="0 0 1024 1024" version="1.1" xmlns="http://www.w3.org/2000/svg" p-id="4725" xmlns:xlink="http://www.w3.org/1999/xlink" width="16" height="16"><defs><style type="text/css"><![CDATA[

]]></style></defs><path d="M0.021997 193.32096l0 127.930671c140.79363 5.760191 220.534765 31.102369 269.941012 67.964928 15.807011-41.086767 34.494629-79.037101 59.709917-112.955608C261.642506 229.671866 160.270724 199.528336 0.021997 193.32096zM1023.979018 191.977359l-255.989255 1.728364c-255.989255-1.728364-356.145349 147.769508-408.175353 295.795866-37.82242 107.579157-70.973448 201.399963-359.793436 213.110679l0 127.995139c344.04987-13.43908 416.239006-137.082098 472.171899-296.179606 34.814923-99.003851 109.819175-207.479425 295.795866-208.695113l0 122.234949L1023.979018 191.977359zM767.989763 575.960731l0 122.234949c-97.979522-1.280156-164.600849-32.638351-205.943442-63.421448l0.511653 0.76748c-15.743566 40.957831-34.174334 78.780251-59.582003 112.635313 61.757552 41.98216 169.017438 82.428338 265.012769 83.196841l255.989255 0.576121L767.989763 575.960731z" p-id="4726" fill="#555"></path></svg>