<?xml version="1.0" standalone="no"?><!DOCTYPE svg PUBLIC "-//W3C//DTD SVG 1.1//EN" "http://www.w3.org/Graphics/SVG/1.1/DTD/svg11.dtd"><svg class="icon" style="" viewBox="0 0 1024 1024" version="1.1" xmlns="http://www.w3.org/2000/svg" p-id="4580" xmlns:xlink="http://www.w3.org/1999/xlink" width="200" height="200"><defs><style type="text/css"><![CDATA[

]]></style></defs><path d="M512 947.106726c-239.915162 0-435.106726-195.191564-435.106726-435.106726S272.084838 76.893274 512 76.893274s435.106726 195.191564 435.106726 435.106726S751.915162 947.106726 512 947.106726zM512 111.019513c-221.1027 0-400.980487 179.877787-400.980487 400.980487s179.877787 400.980487 400.980487 400.980487 400.980487-179.877787 400.980487-400.980487S733.1027 111.019513 512 111.019513z" p-id="4581" fill="#40ce8f"></path><path d="M629.52467 720.071919 399.174352 541.727045c-4.174066-3.232624-6.615675-8.215102-6.615675-13.497409 0-5.282307 2.441609-10.264784 6.615675-13.497409l230.350318-178.328501c5.149277-3.965312 9.28855-4.715395 15.128559-1.816369 5.840008 2.866281 6.713912 8.798387 6.713912 15.313777l0 356.673375c0 6.515391-0.873903 12.447497-6.713912 15.313777-2.38328 1.182942-3.540639 1.749854-6.097882 1.749854C634.847909 723.638141 632.574123 722.42143 629.52467 720.071919zM432.18007 528.229636l185.41899 143.552463 0-287.088554L432.18007 528.229636z" p-id="4582" fill="#40ce8f"></path><path d="M396.052245 725.287711c9.422603 0 16.884552-7.631818 16.884552-17.062608L412.936797 349.901135c0-9.43079-7.461949-17.062608-16.884552-17.062608s-16.884552 7.631818-16.884552 17.062608l0 358.322945C379.167692 717.655893 386.629641 725.287711 396.052245 725.287711z" p-id="4583" fill="#40ce8f"></path></svg>