<?xml version="1.0" standalone="no"?><!DOCTYPE svg PUBLIC "-//W3C//DTD SVG 1.1//EN" "http://www.w3.org/Graphics/SVG/1.1/DTD/svg11.dtd"><svg class="icon" style="" viewBox="0 0 1024 1024" version="1.1" xmlns="http://www.w3.org/2000/svg" p-id="1239" xmlns:xlink="http://www.w3.org/1999/xlink" width="200" height="200"><defs><style type="text/css"><![CDATA[

]]></style></defs><path d="M512 947.106726c-239.915162 0-435.106726-195.191564-435.106726-435.106726S272.084838 76.893274 512 76.893274s435.106726 195.191564 435.106726 435.106726S751.915162 947.106726 512 947.106726zM512 111.019513c-221.1027 0-400.980487 179.877787-400.980487 400.980487s179.877787 400.980487 400.980487 400.980487 400.980487-179.877787 400.980487-400.980487S733.1027 111.019513 512 111.019513z" p-id="1240" fill="#40ce8f"></path><path d="M401.089981 723.638141c-2.558265 0-5.51562-0.566912-7.897877-1.749854-5.840008-2.866281-9.931187-8.798387-9.931187-15.313777l0-356.673375c0-6.515391 4.090155-12.447497 9.931187-15.313777 5.840008-2.899026 13.005198-2.149966 18.154475 1.816369l230.446509 178.328501c4.174066 3.232624 6.662747 8.215102 6.662747 13.497409 0 5.282307-2.417049 10.264784-6.591115 13.497409L411.525658 720.071919C408.477228 722.42143 404.797419 723.638141 401.089981 723.638141zM417.030022 384.693546l0 287.088554 185.41899-143.552463L417.030022 384.693546z" p-id="1241" fill="#40ce8f"></path><path d="M639.087467 725.287711c-9.422603 0-17.396205-7.631818-17.396205-17.062608L621.691261 349.901135c0-9.43079 7.973602-17.062608 17.396205-17.062608s17.396205 7.631818 17.396205 17.062608l0 358.322945C656.483672 717.655893 648.511093 725.287711 639.087467 725.287711z" p-id="1242" fill="#40ce8f"></path></svg>