<?xml version="1.0" standalone="no"?><!DOCTYPE svg PUBLIC "-//W3C//DTD SVG 1.1//EN" "http://www.w3.org/Graphics/SVG/1.1/DTD/svg11.dtd"><svg class="icon" style="" viewBox="0 0 1024 1024" version="1.1" xmlns="http://www.w3.org/2000/svg" p-id="14789" xmlns:xlink="http://www.w3.org/1999/xlink" width="8" height="8"><defs><style type="text/css"><![CDATA[

]]></style></defs><path d="M590.2 144.6c0 3.8-0.4 7.5-0.9 11.2l0.9 0 0 714-0.9 0c0.5 3.7 0.9 7.4 0.9 11.2 0 43.1-35 78.1-78.1 78.1S434 924.1 434 881c0-3.8 0.4-7.5 0.9-11.2L434 869.8l0-714 0.9 0c-0.5-3.7-0.9-7.4-0.9-11.2 0-43.1 35-78.1 78.1-78.1S590.2 101.5 590.2 144.6z" p-id="14790" fill="#555"></path></svg>