<?xml version="1.0" standalone="no"?><!DOCTYPE svg PUBLIC "-//W3C//DTD SVG 1.1//EN" "http://www.w3.org/Graphics/SVG/1.1/DTD/svg11.dtd"><svg class="icon" style="" viewBox="0 0 1024 1024" version="1.1" xmlns="http://www.w3.org/2000/svg" p-id="8957" xmlns:xlink="http://www.w3.org/1999/xlink" width="22" height="22"><defs><style type="text/css"><![CDATA[

]]></style></defs><path d="M165.088 512c0 20.8 27.808 37.728 27.808 37.728l313.28 182.56C508.64 734.752 512.96 736 519.136 736c9.888 0 14.816-4.928 14.816-14.816l0-144.384 270.272 155.52C806.688 734.752 810.4 736 815.328 736 826.432 736 832 731.072 832 721.184L832 302.816C832 292.928 826.432 288 815.328 288c-4.928 0-8.64 1.248-11.104 3.712l-270.272 155.52L533.952 302.816C533.952 292.928 529.024 288 519.136 288c-6.176 0-10.496 1.248-12.96 3.712l-310.72 182.496C195.488 474.208 165.088 491.2 165.088 512z" p-id="8958" fill="#fff"></path></svg>