<?xml version="1.0" standalone="no"?><!DOCTYPE svg PUBLIC "-//W3C//DTD SVG 1.1//EN" "http://www.w3.org/Graphics/SVG/1.1/DTD/svg11.dtd"><svg class="icon" style="" viewBox="0 0 1024 1024" version="1.1" xmlns="http://www.w3.org/2000/svg" p-id="3428" xmlns:xlink="http://www.w3.org/1999/xlink" width="200" height="200"><defs><style type="text/css"><![CDATA[

]]></style></defs><path d="M512 947.106726c-239.915162 0-435.106726-195.191564-435.106726-435.106726S272.084838 76.893274 512 76.893274s435.106726 195.191564 435.106726 435.106726S751.915162 947.106726 512 947.106726zM512 111.019513c-221.1027 0-400.980487 179.877787-400.980487 400.980487s179.877787 400.980487 400.980487 400.980487 400.980487-179.877787 400.980487-400.980487S733.1027 111.019513 512 111.019513z" p-id="1699" fill="#40ce8f"></path><path d="M440.055966 369.442335c-12.485309 0-22.514491 10.029182-22.514491 22.514491l0 248.68279c0 12.485309 10.029182 22.514491 22.514491 22.514491s22.514491-10.029182 22.514491-22.514491L462.570458 391.956826C462.570458 379.471517 452.541275 369.442335 440.055966 369.442335z" p-id="3430" fill="#40ce8f"></path><path d="M570.025984 369.442335c-12.485309 0-22.514491 10.029182-22.514491 22.514491l0 248.68279c0 12.485309 10.029182 22.514491 22.514491 22.514491s22.514491-10.029182 22.514491-22.514491L592.540476 391.956826C592.540476 379.471517 582.511293 369.442335 570.025984 369.442335z" p-id="3431" fill="#40ce8f"></path></svg>