<?xml version="1.0" standalone="no"?><!DOCTYPE svg PUBLIC "-//W3C//DTD SVG 1.1//EN" "http://www.w3.org/Graphics/SVG/1.1/DTD/svg11.dtd"><svg class="icon" style="" viewBox="0 0 1024 1024" version="1.1" xmlns="http://www.w3.org/2000/svg" p-id="7328" xmlns:xlink="http://www.w3.org/1999/xlink" width="16" height="16"><defs><style type="text/css"><![CDATA[

]]></style></defs><path d="M153.6 384h89.6l296.96-217.6c25.6-23.04 48.64-17.92 48.64 35.84v619.52c0 56.32-23.04 58.88-48.64 35.84L243.2 640H153.6c-28.16 0-51.2-23.04-51.2-51.2v-153.6c0-28.16 23.04-51.2 51.2-51.2z" fill="#555" p-id="7329"></path><path d="M724.48 368.64C752.64 409.6 768 458.24 768 512c0 51.2-15.36 99.84-40.96 138.24l-43.52-23.04c20.48-33.28 33.28-74.24 33.28-115.2 0-43.52-12.8-84.48-35.84-120.32l43.52-23.04z" fill="#555" p-id="7330"></path><path d="M862.72 721.92l-43.52-23.04c33.28-53.76 51.2-120.32 51.2-186.88 0-71.68-20.48-138.24-53.76-194.56l43.52-23.04c40.96 64 64 138.24 64 217.6-2.56 76.8-23.04 148.48-61.44 209.92z" fill="#555" p-id="7331"></path></svg>