<?xml version="1.0" standalone="no"?><!DOCTYPE svg PUBLIC "-//W3C//DTD SVG 1.1//EN" "http://www.w3.org/Graphics/SVG/1.1/DTD/svg11.dtd"><svg class="icon" style="" viewBox="0 0 1024 1024" version="1.1" xmlns="http://www.w3.org/2000/svg" p-id="3881" xmlns:xlink="http://www.w3.org/1999/xlink" width="48" height="48"><defs><style type="text/css"><![CDATA[

]]></style></defs><path d="M575.444473 53.728692M511.999488 117.173676M1778.852562 53.728692M1715.407578 117.173676M4222.507764 53.728692M4159.062779 117.173676M868.172467 624.986307 868.172467 624.986307l0-6.087649 0-6.085602 0-316.836065-0.676405-0.675382c0.676405-1.352811 0-2.705622 0-4.059456-2.051729-6.77531-9.492188-11.508102-16.256242-9.479909l-303.973106 76.501348c-6.763031 1.350764-10.843976 7.439436-10.168594 13.538341l0 0L537.098119 628.39187c-22.99676-13.549597-57.538461-15.579837-90.028433-1.352811-47.393403 19.615757-73.794703 64.97892-58.226123 100.197026 14.892175 35.196617 64.990177 47.367821 112.38358 27.077705 37.923728-15.579837 62.295811-48.068785 62.295811-77.852112l0 0 0 0c0-0.700965 0-1.376347 0-2.051729l0-58.892295 0 0L563.522955 381.959272l277.56976-69.736271 0 264.042675c-21.667485-16.257266-54.856375-23.695678-89.37454-16.934694-55.509245 9.470699-94.78476 51.450812-87.322811 93.432972 7.440459 41.959647 58.892295 67.685565 115.076922 57.539484C831.602573 701.509145 869.525278 663.587464 868.172467 624.986307L868.172467 624.986307zM855.973634 871.420953c-183.459359 131.331118-435.980629 103.579053-586.952063-64.303538-150.971433-167.904081-150.971433-422.453544 0-590.345346C419.993005 48.866964 672.514275 21.112853 855.973634 153.133679l-28.430516 38.587853C664.396387 74.593905 438.266184 98.965989 304.227398 248.584612c-134.726447 150.295028-134.726447 377.079124 0 526.696724 134.038786 149.617599 360.168989 174.668135 523.31572 56.885592L855.973634 871.420953z" p-id="3882" fill="#fff"></path></svg>